<?xml version="1.0" standalone="no"?>
<!DOCTYPE svg PUBLIC "-//W3C//DTD SVG 20010904//EN"
 "http://www.w3.org/TR/2001/REC-SVG-20010904/DTD/svg10.dtd">
<svg version="1.0" xmlns="http://www.w3.org/2000/svg"
 width="1280.000000pt" height="961.000000pt" viewBox="0 0 1280.000000 961.000000"
 preserveAspectRatio="xMidYMid meet">
<metadata>
Created by potrace 1.15, written by Peter Selinger 2001-2017
</metadata>
<g transform="translate(0.000000,961.000000) scale(0.100000,-0.100000)"
fill="#000000" stroke="none">
<path d="M6645 8903 c-22 -2 -84 -10 -138 -18 -54 -8 -127 -15 -163 -15 -51 0
-65 -3 -61 -13 4 -10 -22 -21 -91 -41 -54 -15 -158 -51 -232 -81 -103 -40
-157 -56 -226 -64 -91 -11 -179 -35 -190 -52 -3 -5 7 -9 23 -9 55 0 59 -14 16
-57 -40 -40 -68 -54 -138 -72 -22 -6 -49 -17 -60 -26 -17 -12 -18 -16 -5 -24
12 -8 3 -20 -45 -63 -33 -29 -100 -92 -150 -139 -49 -48 -104 -94 -120 -102
-61 -31 -152 -107 -199 -166 -26 -34 -44 -61 -41 -61 4 0 -18 -28 -49 -62 -58
-64 -70 -86 -37 -68 62 33 54 -2 -35 -143 -42 -67 -105 -183 -140 -257 -36
-74 -72 -146 -80 -160 -28 -47 -52 -106 -52 -130 0 -14 -16 -77 -35 -140 -19
-63 -52 -182 -72 -265 -43 -174 -48 -185 -78 -185 -19 0 -31 18 -75 113 -29
62 -64 125 -77 139 -35 38 -116 55 -183 38 -48 -11 -54 -16 -93 -78 -23 -36
-65 -87 -93 -113 -29 -26 -57 -63 -65 -84 -32 -90 -77 -139 -101 -110 -19 23
-5 57 49 112 72 76 88 137 52 197 -10 17 -24 48 -31 69 -13 41 -40 61 -70 52
-16 -5 -18 -9 -7 -25 9 -15 9 -22 -1 -32 -11 -11 -17 -9 -33 11 -10 13 -19 32
-19 43 0 10 -11 30 -25 44 -14 14 -41 49 -60 79 -37 59 -55 66 -111 45 -27
-11 -27 -11 -7 -25 26 -19 35 -81 16 -117 -15 -30 -32 -35 -62 -17 -17 11 -91
5 -91 -7 0 -3 9 -17 20 -31 25 -32 25 -44 0 -71 -16 -17 -25 -20 -40 -12 -10
5 -25 8 -32 5 -8 -3 -34 3 -59 14 -57 27 -81 26 -106 -1 -34 -38 -38 -51 -15
-44 15 5 30 -2 56 -29 31 -31 37 -44 36 -82 -1 -20 -54 -21 -97 -2 -59 25 -85
24 -111 -4 -26 -27 -28 -37 -7 -37 21 0 106 -80 99 -92 -4 -6 27 -42 69 -82
42 -39 77 -78 78 -86 3 -30 -1 -38 -26 -44 -25 -6 -45 -39 -45 -73 0 -13 3
-13 15 -3 20 17 65 -2 65 -27 0 -21 -86 -53 -142 -53 -39 0 -53 -11 -63 -53
-7 -26 -6 -28 17 -22 25 6 138 -30 138 -45 0 -10 40 -25 135 -50 44 -12 124
-45 178 -73 l98 -52 22 26 c12 15 37 52 56 82 19 31 42 58 52 60 10 3 38 36
62 74 25 38 70 96 100 129 47 50 58 57 74 48 24 -15 30 -49 32 -184 2 -153 17
-259 39 -290 12 -15 45 -34 86 -49 77 -27 93 -53 59 -99 -53 -74 -63 -89 -69
-116 -5 -21 -4 -27 5 -22 17 11 13 -5 -12 -49 -17 -29 -38 -48 -82 -70 -60
-30 -133 -94 -155 -135 -11 -20 -10 -22 4 -17 9 4 16 5 16 4 0 -2 -47 -45
-105 -97 -58 -52 -105 -98 -105 -102 0 -5 7 -8 16 -8 27 0 -28 -45 -79 -65
-43 -16 -47 -16 -118 6 -80 25 -191 31 -223 12 -18 -10 -17 -12 12 -27 61 -32
32 -71 -60 -81 -71 -8 -227 7 -327 31 -65 16 -67 18 -191 144 -107 110 -168
160 -195 160 -4 0 -5 -16 -3 -36 3 -43 -15 -60 -55 -50 -39 9 -192 160 -224
219 -16 30 -40 57 -55 65 -15 7 -39 27 -52 45 -41 54 -156 249 -163 276 -9 36
11 159 58 356 51 216 63 402 34 531 l-19 79 -11 -100 c-13 -111 -31 -185 -45
-185 -45 0 -66 61 -50 149 16 92 36 152 116 349 97 240 118 319 118 447 0 92
-18 184 -42 222 -4 7 -6 -32 -4 -85 5 -112 -16 -205 -50 -223 -25 -14 -26 -12
-45 57 -8 33 -21 70 -29 84 -12 23 -13 22 -9 -25 4 -41 2 -36 -14 30 -11 44
-38 139 -61 210 -51 160 -80 311 -80 424 l0 86 -29 -85 c-42 -123 -67 -176
-85 -183 -13 -5 -16 1 -17 36 l-1 42 -15 -37 c-9 -21 -19 -38 -24 -38 -5 0
-26 24 -48 54 -57 76 -97 112 -165 146 -76 38 -101 39 -49 1 79 -57 123 -142
123 -236 0 -75 -20 -76 -93 -8 -52 48 -138 103 -162 103 -3 0 17 -21 44 -47
38 -37 52 -61 65 -106 27 -92 30 -172 12 -283 -9 -56 -16 -119 -16 -140 0 -26
-8 -49 -24 -69 l-24 -30 -7 59 c-4 32 -5 98 -3 145 l5 86 -19 -60 c-66 -209
-70 -490 -11 -792 16 -84 12 -146 -9 -125 -6 6 -22 42 -35 79 l-24 68 5 -130
c10 -266 112 -514 354 -859 64 -91 86 -132 121 -231 107 -298 268 -572 474
-805 230 -258 532 -423 866 -471 119 -17 400 -6 513 20 346 80 696 288 929
552 204 232 307 371 404 544 36 66 74 126 83 133 9 7 28 11 42 8 47 -9 140 45
335 194 125 96 139 104 165 90 24 -13 25 -27 5 -121 -9 -40 -22 -117 -30 -170
-8 -54 -26 -128 -41 -166 -43 -112 -50 -142 -38 -161 6 -9 52 -33 101 -53 86
-35 127 -59 252 -150 30 -21 63 -39 73 -39 43 0 138 -64 138 -94 0 -18 1 -18
25 4 33 31 32 54 -10 114 -20 29 -36 66 -37 86 -3 31 0 35 22 38 31 3 118 -50
129 -79 7 -21 8 -21 29 6 28 35 28 37 -5 96 -22 39 -26 53 -17 66 14 23 56 28
108 13 53 -15 106 -16 115 -2 3 6 33 10 69 9 53 -2 67 -6 82 -24 15 -19 19
-20 24 -7 3 9 6 31 6 49 0 26 -7 39 -30 55 -61 43 -25 87 63 77 27 -4 58 -13
67 -22 16 -15 18 -14 24 7 16 61 9 75 -55 113 -34 20 -69 45 -78 55 -10 12
-41 25 -80 33 -70 14 -88 30 -77 70 7 31 87 82 123 79 26 -2 26 -2 13 32 -15
39 5 79 51 105 24 14 50 21 65 18 21 -4 24 -1 18 17 -9 32 -33 66 -50 73 -9 3
-46 1 -84 -4 -41 -5 -76 -5 -85 0 -12 6 -38 -2 -88 -27 -75 -37 -94 -36 -78 5
10 29 29 45 55 50 16 4 16 6 -7 31 l-26 27 -48 -15 c-26 -9 -64 -18 -83 -21
-43 -6 -106 -64 -115 -105 -8 -33 -68 -83 -90 -74 -25 9 -18 46 34 177 81 208
83 214 67 254 -18 42 -90 121 -130 142 -49 25 -159 4 -436 -87 -85 -27 -162
-50 -172 -50 -49 0 -35 61 112 500 148 443 311 772 447 901 262 250 569 364
1010 376 216 6 363 -6 525 -42 610 -137 991 -608 964 -1190 -11 -229 -56 -392
-173 -627 -87 -174 -141 -251 -307 -441 -438 -500 -658 -813 -797 -1131 -55
-127 -73 -138 -127 -76 -79 93 -74 88 -67 60 4 -14 24 -63 46 -109 39 -83 42
-114 14 -125 -16 -6 -39 16 -113 106 -26 32 -48 54 -50 49 -2 -7 14 -55 43
-124 17 -41 -53 7 -150 103 -55 54 -112 101 -127 105 -30 8 -139 -18 -183 -43
-18 -11 -43 -42 -62 -79 -18 -33 -49 -73 -68 -87 -43 -33 -67 -79 -100 -192
-25 -87 -46 -124 -71 -124 -7 0 -34 -9 -60 -20 -26 -12 -55 -18 -67 -14 -11 3
-46 30 -78 60 -67 62 -125 94 -170 94 -26 0 -44 -11 -90 -57 -36 -37 -61 -72
-67 -96 -7 -25 -27 -53 -60 -82 -31 -28 -55 -61 -65 -87 -8 -24 -23 -63 -32
-88 -11 -30 -14 -59 -10 -86 7 -52 -9 -89 -47 -105 -42 -17 -57 -46 -79 -146
-21 -95 -25 -168 -9 -178 5 -3 14 -25 21 -48 16 -60 43 -101 83 -122 20 -11
37 -17 40 -15 2 3 -3 33 -12 68 -18 68 -15 82 30 115 25 19 26 19 66 -4 41
-24 65 -21 43 5 -6 8 -14 36 -17 62 -5 43 -3 52 19 77 30 31 41 32 175 13 53
-8 131 -17 172 -21 147 -14 303 -82 314 -137 3 -13 7 -55 8 -95 3 -50 9 -77
21 -91 9 -10 17 -31 17 -46 0 -31 -38 -106 -54 -106 -6 0 -6 -4 1 -11 7 -7 25
-9 49 -4 44 8 154 107 184 167 11 20 42 58 70 85 59 56 89 125 97 224 7 84 -5
108 -97 190 -39 34 -79 77 -90 94 -57 92 18 310 87 254 8 -7 33 -40 56 -74 22
-33 67 -95 99 -137 51 -68 67 -81 131 -112 39 -19 80 -37 89 -40 34 -10 46
-51 62 -206 21 -200 50 -371 82 -489 31 -114 25 -137 -36 -143 -36 -3 -42 0
-99 63 -109 120 -216 173 -351 173 -47 0 -89 -6 -113 -17 -35 -15 -51 -28
-157 -127 -42 -39 -42 -40 -7 -15 21 15 39 26 42 24 2 -2 -1 -25 -6 -49 -6
-29 -6 -60 0 -85 9 -39 9 -39 10 23 1 34 7 78 15 96 11 27 21 34 54 39 21 4
66 2 98 -4 135 -25 218 -90 344 -269 106 -151 154 -205 232 -260 76 -53 122
-72 364 -149 167 -53 202 -71 208 -107 5 -27 -21 -33 -133 -35 l-76 -1 75 -15
c85 -16 98 -24 76 -45 -10 -11 -47 -18 -113 -23 l-98 -8 85 -17 c47 -10 102
-25 123 -33 31 -13 37 -21 37 -46 0 -34 -20 -49 -98 -71 l-42 -13 -69 66 c-85
82 -139 107 -247 114 -139 9 -209 -23 -376 -177 -120 -109 -167 -256 -134
-417 31 -153 77 -229 247 -410 136 -144 144 -152 134 -134 -4 7 -48 59 -98
115 -212 238 -268 358 -254 539 5 71 37 167 56 167 5 0 10 -41 10 -92 1 -201
53 -301 285 -547 88 -94 126 -143 152 -196 44 -88 55 -174 30 -223 -9 -18 -14
-32 -12 -32 3 0 13 14 22 32 12 24 15 49 11 101 -7 102 -53 184 -188 337 -204
231 -254 330 -253 500 0 111 26 190 79 249 32 35 33 35 129 39 92 4 100 3 161
-27 60 -30 125 -92 125 -120 0 -6 4 -11 9 -11 9 0 60 -109 81 -174 12 -37 11
-39 -16 -62 l-29 -24 30 10 c28 9 28 9 10 -5 -59 -42 -60 -44 -9 -25 l51 19
23 -42 c52 -94 117 -182 173 -232 185 -168 488 -228 682 -136 33 16 105 63
160 105 124 94 150 98 149 22 l0 -49 22 26 c19 22 24 24 34 12 14 -17 5 -102
-16 -154 -23 -55 -8 -48 33 15 38 57 74 86 58 47 -20 -51 -20 -49 0 -33 18 14
18 12 13 -55 l-6 -70 35 73 c30 61 38 71 50 60 10 -8 13 -22 9 -47 -6 -32 -5
-34 7 -19 24 31 28 20 21 -59 -8 -92 1 -89 41 14 18 47 34 73 46 76 11 3 16 1
13 -4 -3 -5 -2 -30 2 -56 6 -43 8 -45 21 -27 7 10 19 35 25 55 6 22 18 39 29
42 17 5 19 -1 20 -46 l1 -52 30 67 c37 79 65 95 70 39 l4 -36 29 63 c27 59 30
62 39 40 l10 -23 4 28 c4 33 19 36 25 5 3 -22 4 -22 11 -3 4 11 12 28 17 37 5
10 9 27 9 37 0 32 19 34 31 4 13 -32 15 -28 24 42 l7 50 24 -28 24 -28 0 26
c0 15 -5 35 -11 47 -15 27 -3 35 21 13 14 -13 20 -14 20 -5 0 8 -22 35 -48 60
-27 26 -52 54 -55 64 -10 27 95 190 133 206 17 7 41 26 55 41 53 64 126 30
330 -155 165 -148 244 -196 340 -204 53 -4 71 -1 121 22 33 15 73 39 89 55 17
15 48 39 70 54 108 72 156 191 190 477 20 173 65 301 121 352 52 46 238 66
329 35 110 -37 207 -164 221 -288 8 -68 -9 -148 -39 -185 -14 -18 -16 -25 -6
-22 33 11 76 151 64 211 -23 116 -88 220 -170 275 -27 18 -79 42 -116 54 -61
19 -66 23 -51 37 11 12 35 16 91 15 183 -1 319 -135 329 -322 5 -91 -15 -149
-70 -204 -22 -22 -31 -35 -20 -29 36 19 91 90 103 133 31 118 -11 269 -101
359 -84 84 -205 125 -337 116 -106 -8 -173 -42 -295 -151 -149 -133 -187 -210
-228 -457 -26 -154 -46 -231 -72 -283 -27 -53 -44 -65 -94 -66 -69 0 -146 48
-283 176 -206 192 -305 250 -446 261 -38 3 -79 11 -91 18 -11 7 -41 16 -66 18
-86 10 -134 49 -167 137 -27 71 -27 76 8 141 16 30 32 70 36 89 4 19 22 52 40
73 18 21 33 48 33 60 -1 12 4 46 11 76 6 30 9 56 7 58 -2 3 -12 -9 -22 -26
-27 -46 -35 -20 -28 84 6 78 11 94 35 125 64 79 84 163 94 385 6 138 18 228
34 253 4 7 23 15 42 18 26 4 43 0 71 -19 l37 -26 3 27 c2 22 10 28 43 34 53
12 62 6 90 -54 30 -64 33 -49 5 18 -11 26 -19 48 -18 49 2 2 33 16 69 33 123
55 207 123 289 232 19 25 55 68 80 96 136 153 195 361 160 564 -19 105 -15
132 36 243 57 125 64 175 34 245 -31 72 -46 82 -55 35 -15 -82 -86 -178 -101
-138 -8 21 -24 19 -24 -2 0 -15 -2 -16 -10 -3 -19 30 -9 84 37 198 38 96 47
131 50 197 5 89 -13 197 -45 267 -20 42 -20 42 -21 13 -1 -16 -13 -73 -26
-124 -14 -52 -25 -111 -25 -131 0 -25 -19 -76 -59 -156 -64 -128 -81 -178 -81
-235 0 -88 -60 -58 -68 34 -5 65 11 107 78 197 107 144 117 215 55 395 -37
110 -48 200 -32 265 4 15 0 11 -9 -10 -25 -52 -29 -163 -10 -254 20 -99 21
-166 2 -166 -50 0 -96 107 -97 227 l0 78 -19 -40 c-10 -22 -19 -48 -19 -57 -1
-20 -9 -22 -30 -9 -9 6 -12 24 -10 60 2 28 2 51 0 51 -19 0 -80 -121 -87 -173
-4 -24 -15 -54 -25 -68 l-19 -24 0 49 0 49 -19 -24 c-43 -56 -55 -94 -62 -203
-8 -118 -22 -151 -57 -130 -14 9 -18 32 -23 130 -4 65 -7 121 -8 124 -1 3 -17
-26 -35 -65 -19 -38 -45 -85 -59 -103 -25 -33 -25 -33 -32 -11 -7 20 -9 18
-25 -22 -29 -79 -147 -264 -189 -297 -22 -18 -41 -42 -43 -54 -7 -39 -38 79
-38 140 0 47 7 69 49 148 47 87 82 179 80 213 0 9 -9 -6 -20 -34 -10 -27 -36
-72 -57 -100 l-37 -50 -3 33 c-4 41 -22 42 -22 2 0 -39 -29 -97 -91 -181 -55
-74 -69 -106 -69 -155 0 -56 -37 -47 -147 37 -111 84 -185 113 -277 107 -50
-4 -63 -9 -85 -34 -14 -17 -66 -77 -116 -134 -111 -128 -181 -186 -202 -168
-11 9 -16 9 -23 -2 -16 -27 -24 19 -10 63 42 140 173 338 337 510 170 177 236
252 384 437 202 251 319 431 418 642 132 280 188 503 211 838 6 85 13 180 16
210 4 48 3 53 -9 38 -12 -16 -16 -6 -31 88 -23 136 -56 259 -106 392 -41 107
-41 107 -34 208 11 164 -27 271 -131 374 l-55 54 10 -34 c22 -78 4 -150 -37
-150 -6 0 -45 35 -87 78 -56 56 -79 88 -86 117 -18 67 -41 112 -74 144 l-32
31 4 -35 c4 -33 2 -35 -25 -35 -21 0 -57 20 -120 68 -74 54 -98 79 -128 131
-65 111 -207 237 -302 265 l-21 7 19 -38 c25 -48 24 -61 -4 -74 -19 -8 -39 -3
-114 29 -50 22 -109 54 -130 70 -48 39 -98 60 -89 37 7 -20 5 -20 -146 20
-261 68 -405 86 -685 83 -109 -1 -216 -3 -238 -5z m2288 -4280 c3 -10 12 -41
20 -70 l15 -51 -32 -31 c-43 -41 -76 -34 -76 16 0 36 46 153 60 153 4 0 10 -8
13 -17z m-478 -516 c74 -37 158 -90 185 -117 16 -16 20 -33 20 -85 0 -282 168
-531 431 -640 88 -37 95 -45 68 -79 -47 -60 -58 -109 -89 -399 -10 -98 -30
-165 -53 -179 -8 -5 -20 7 -34 35 l-23 42 6 -45 5 -45 -36 69 c-27 51 -66 97
-149 180 -62 61 -120 127 -128 146 -9 19 -30 70 -48 112 -32 78 -81 145 -99
134 -5 -3 -12 -24 -16 -45 -3 -22 -15 -47 -26 -57 -18 -16 -20 -16 -37 -1 -10
10 -21 17 -25 17 -3 0 -11 -26 -17 -57 -14 -68 -24 -83 -55 -83 -55 0 -114 85
-166 237 -32 96 -53 133 -73 133 -17 0 -48 71 -75 170 -34 121 -26 158 45 216
24 19 60 69 94 129 76 135 140 227 170 242 29 15 44 11 125 -30z m561 -11 c-1
-14 -10 -35 -19 -48 l-16 -23 0 22 c-1 29 16 73 28 73 5 0 8 -11 7 -24z m185
-977 c-6 -35 -15 -118 -21 -183 -13 -148 -26 -203 -50 -209 -17 -4 -18 4 -14
137 2 77 9 164 15 193 9 47 64 141 75 130 3 -3 0 -33 -5 -68z m-2871 -339 c76
-14 151 -52 206 -102 26 -23 89 -103 142 -176 52 -74 120 -161 152 -193 62
-63 72 -79 61 -98 -5 -8 -25 1 -67 28 -68 44 -106 84 -226 231 -95 117 -145
165 -209 203 -56 33 -148 57 -219 57 l-55 0 33 22 c56 36 103 43 182 28z
m2740 -337 c-11 -17 -11 -17 -6 0 3 10 6 24 7 30 0 9 2 9 5 0 3 -7 0 -20 -6
-30z m-2060 -758 c41 -21 64 -41 99 -87 12 -16 10 -19 -15 -29 l-29 -12 25 -6
c27 -6 39 -31 16 -31 -7 0 -30 20 -50 44 -20 24 -63 62 -96 84 -36 24 -56 43
-49 48 8 4 7 9 -2 16 -26 18 55 -4 101 -27z m387 -167 c7 -6 13 -24 13 -40 0
-33 -41 -78 -71 -78 -41 0 -83 75 -62 109 19 30 89 35 120 9z m-225 -62 c19
-14 45 -71 28 -61 -6 3 -10 1 -10 -4 0 -6 -6 -11 -13 -11 -12 0 -47 59 -47 80
0 14 22 12 42 -4z m423 -131 c14 -13 25 -32 25 -42 0 -24 -52 -113 -83 -141
-23 -22 -28 -23 -53 -10 -15 7 -45 38 -67 70 -52 73 -47 100 20 122 47 15 81
22 116 25 10 0 29 -10 42 -24z m290 -45 c24 -27 15 -86 -31 -198 -49 -119 -49
-119 -126 -98 -76 21 -156 63 -169 89 -14 24 -8 30 112 122 145 112 178 125
214 85z m1186 -47 c-12 -20 -14 -14 -5 12 4 9 9 14 11 11 3 -2 0 -13 -6 -23z
m-908 -41 c29 -34 28 -56 -5 -112 -36 -59 -79 -94 -137 -110 -44 -12 -141 -13
-141 -2 0 27 179 229 214 242 26 9 51 3 69 -18z m-283 -182 c-18 -35 -40 -53
-40 -33 0 8 49 73 56 73 2 0 -5 -18 -16 -40z"/>
</g>
</svg>
