<?xml version="1.0" standalone="no"?>
<!DOCTYPE svg PUBLIC "-//W3C//DTD SVG 20010904//EN"
 "http://www.w3.org/TR/2001/REC-SVG-20010904/DTD/svg10.dtd">
<svg version="1.0" xmlns="http://www.w3.org/2000/svg"
 width="1280.000000pt" height="694.000000pt" viewBox="0 0 1280.000000 694.000000"
 preserveAspectRatio="xMidYMid meet">
<metadata>
Created by potrace 1.15, written by Peter Selinger 2001-2017
</metadata>
<g transform="translate(0.000000,694.000000) scale(0.100000,-0.100000)"
fill="#000000" stroke="none">
<path d="M2277 6882 c85 -73 124 -118 180 -204 108 -166 131 -241 143 -463 10
-186 35 -283 99 -382 55 -85 87 -114 303 -276 203 -151 268 -212 268 -250 0
-30 -58 -91 -99 -105 -30 -11 -31 -10 -66 48 -19 32 -46 65 -60 74 -37 24
-125 57 -125 46 0 -5 5 -12 11 -15 6 -4 24 -25 40 -47 23 -33 29 -51 29 -94 0
-69 -10 -74 -138 -74 -54 0 -102 -3 -106 -7 -4 -4 19 -31 51 -61 54 -49 57
-54 40 -67 -10 -7 -47 -18 -82 -25 -100 -19 -204 -98 -162 -122 41 -22 78 -62
75 -80 -2 -11 -42 -44 -97 -81 -52 -34 -97 -67 -99 -74 -1 -6 11 -14 28 -18
26 -6 30 -10 24 -28 -17 -55 -68 -108 -131 -138 -99 -46 -233 -36 -558 43
-115 28 -243 53 -283 56 -90 6 -134 -4 -492 -115 -399 -122 -419 -127 -549
-114 -167 17 -261 44 -390 112 -65 34 -118 56 -123 51 -16 -16 141 -154 222
-195 93 -46 150 -57 305 -57 158 0 264 19 519 91 415 118 522 118 786 1 188
-83 246 -96 417 -90 109 4 153 10 208 29 89 30 178 90 234 160 24 30 49 55 56
57 6 1 26 -16 44 -38 l32 -41 -25 -44 c-14 -24 -26 -45 -26 -48 0 -2 23 -2 52
1 l51 5 -7 -43 -7 -43 40 7 c48 7 59 -5 36 -40 l-16 -25 35 7 c20 3 47 3 62 0
20 -5 24 -11 19 -27 -6 -18 -4 -19 13 -10 28 15 52 3 52 -25 0 -21 3 -23 19
-14 28 14 44 12 37 -5 -4 -12 3 -15 29 -15 34 0 35 -1 35 -40 0 -44 5 -46 74
-31 36 9 41 7 83 -32 59 -54 92 -113 100 -176 5 -41 3 -51 -9 -51 -8 0 -68 40
-133 90 -66 49 -140 100 -165 114 -72 39 -307 96 -473 115 -97 11 -367 -1
-430 -19 -33 -10 -38 -15 -35 -37 7 -60 77 -82 258 -83 168 -1 256 -14 343
-50 108 -45 239 -151 215 -175 -3 -3 -40 13 -82 36 -66 35 -76 44 -76 68 0 38
-8 43 -42 25 -35 -18 -61 -12 -78 21 -16 30 -24 31 -48 4 l-20 -20 -19 27 -20
27 -42 -24 -43 -24 -22 28 -22 27 -34 -25 -35 -26 -20 25 c-20 25 -20 25 -45
6 -34 -26 -38 -25 -54 15 -8 19 -17 35 -20 35 -2 0 -21 -23 -41 -52 l-38 -52
-32 39 -33 38 -23 -44 c-20 -37 -24 -59 -24 -146 l-1 -102 -34 -37 c-19 -19
-51 -44 -70 -54 l-35 -18 27 -11 c58 -22 122 -23 215 -2 118 27 113 27 103
-10 -12 -42 -25 -56 -79 -81 l-46 -22 38 -4 c76 -7 168 15 222 53 l50 35 7
-45 c4 -28 18 -60 38 -85 31 -39 32 -39 57 -23 30 20 83 90 83 110 0 30 18 10
29 -31 20 -79 15 -102 -31 -152 l-42 -45 70 26 c38 14 90 44 116 65 25 22 48
40 51 40 2 0 7 -48 11 -107 4 -59 9 -109 11 -111 2 -2 28 7 59 21 37 17 60 35
71 56 8 17 17 31 18 31 1 0 3 -23 4 -52 2 -46 7 -57 42 -92 l40 -40 27 24 c14
14 40 49 56 78 l30 52 29 -45 c21 -33 44 -52 84 -72 55 -27 55 -27 75 -8 11
11 28 45 39 75 l19 55 11 -30 c29 -77 51 -100 107 -111 l29 -6 -3 51 c-3 44
-1 51 15 52 59 4 100 -12 165 -63 l38 -30 10 29 c6 15 23 59 38 98 l27 70 8
-58 c7 -51 5 -65 -17 -113 -49 -107 -175 -206 -437 -344 -251 -133 -450 -277
-583 -422 -84 -92 -112 -145 -125 -238 -5 -41 -15 -76 -21 -78 -5 -2 -10 -10
-10 -18 0 -8 -6 -14 -14 -14 -8 0 -43 -9 -79 -20 -107 -33 -150 -81 -165 -182
l-7 -53 -40 3 c-75 7 -220 41 -343 82 -68 22 -141 43 -163 46 -33 6 -43 13
-62 48 -14 26 -31 42 -45 44 -12 2 -22 6 -22 10 0 4 94 101 210 217 144 144
209 216 208 230 -1 11 4 38 10 60 16 55 15 110 -3 145 -15 29 -75 75 -129 98
-26 12 -28 11 -21 -5 32 -76 30 -130 -6 -161 -11 -9 -75 -87 -142 -172 -160
-202 -183 -226 -202 -210 -19 16 -19 72 0 298 7 95 11 180 8 188 -8 22 -74 52
-130 60 -58 7 -143 -14 -183 -46 l-25 -20 28 0 c20 0 41 -13 70 -42 l42 -43
-5 -180 -5 -180 -35 4 c-40 4 -98 31 -122 58 -33 36 -98 180 -98 217 0 56 -27
76 -103 76 -75 0 -136 -25 -190 -78 -20 -20 -37 -39 -37 -43 0 -4 15 -7 34 -7
65 0 136 -38 136 -72 0 -22 71 -161 107 -208 13 -18 67 -67 119 -108 52 -42
94 -80 94 -85 0 -5 -34 -9 -76 -9 -72 0 -86 4 -233 67 -162 69 -215 80 -291
62 -56 -13 -130 -104 -130 -158 0 -16 26 -95 35 -109 1 -1 26 22 56 53 32 33
63 55 76 55 29 0 190 -38 230 -55 18 -8 62 -37 99 -65 l68 -51 137 7 136 7 37
-34 37 -34 4 -130 c2 -71 4 -134 4 -139 1 -5 20 -26 43 -47 l41 -39 -49 -49
c-48 -48 -120 -81 -178 -81 -17 0 -18 -2 -6 -10 40 -26 91 -31 172 -16 92 18
121 33 150 82 12 20 28 34 39 34 26 0 25 5 -21 94 -44 85 -48 109 -25 163 18
42 83 130 102 137 7 3 45 -34 92 -93 102 -126 239 -254 306 -286 128 -60 354
-50 464 21 20 14 47 15 190 9 91 -4 171 -11 177 -16 6 -5 20 -8 30 -7 11 2 69
-14 129 -34 228 -75 423 -97 713 -79 210 13 291 24 371 51 l55 18 53 -35 c86
-57 138 -134 168 -250 20 -75 19 -116 -3 -143 l-18 -22 -50 20 c-64 24 -282
154 -392 234 -133 96 -217 115 -319 73 -54 -23 -67 -57 -64 -170 l1 -40 48 52
c50 55 78 73 112 73 16 0 20 -4 16 -15 -6 -16 24 -36 281 -199 43 -27 72 -51
66 -53 -7 -3 -69 8 -138 22 -86 18 -139 25 -168 21 -23 -4 -65 -8 -94 -9 -121
-5 -146 -110 -59 -247 31 -48 36 -52 36 -29 0 29 18 88 32 105 6 9 16 9 37 1
23 -9 43 -6 109 16 45 15 95 27 111 27 41 0 149 -35 172 -56 57 -52 -13 -94
-196 -119 -71 -9 -142 -23 -157 -31 -77 -40 -77 -160 0 -241 37 -40 52 -42 52
-5 0 21 14 38 65 80 99 80 185 122 251 122 30 0 54 -3 54 -7 0 -5 -32 -30 -71
-58 -103 -72 -106 -78 -105 -179 1 -69 5 -88 21 -106 32 -35 51 -41 175 -54
l117 -12 -39 50 c-22 27 -48 66 -58 85 l-18 36 162 167 161 168 147 0 146 0
77 41 c96 51 125 52 169 10 29 -28 37 -31 54 -22 29 16 30 15 38 -24 10 -53
-4 -101 -39 -141 l-31 -36 61 30 c103 53 128 106 97 209 -10 32 -16 64 -15 71
4 23 -33 71 -63 82 -26 9 -40 5 -103 -25 l-73 -35 -142 1 c-146 1 -189 7 -195
25 -6 17 88 154 143 209 36 37 73 61 139 90 238 104 246 134 85 293 -96 95
-160 186 -160 228 0 26 15 39 119 100 50 29 133 94 205 159 714 650 1179 967
1496 1025 110 20 411 -25 585 -87 96 -35 234 -105 325 -166 100 -67 280 -250
266 -270 -6 -7 -62 -35 -125 -62 -169 -71 -192 -102 -242 -324 -23 -100 -26
-106 -64 -134 -22 -16 -82 -50 -134 -75 -73 -35 -111 -46 -173 -53 -44 -5 -83
-7 -88 -4 -4 3 -1 31 8 63 13 43 17 92 15 207 -2 173 -16 239 -55 268 -26 19
-28 19 -125 2 -106 -19 -149 -34 -98 -35 44 0 100 -42 123 -92 18 -39 20 -55
13 -180 -3 -75 -10 -140 -13 -144 -11 -10 -36 10 -218 166 -91 78 -175 147
-187 153 -13 5 -25 19 -29 29 -14 46 -103 40 -180 -13 -45 -31 -87 -91 -100
-144 -6 -26 -5 -28 7 -18 25 20 91 25 139 10 46 -15 370 -248 370 -267 0 -6
-39 -10 -96 -10 -86 0 -109 4 -233 45 -137 45 -185 53 -196 36 -3 -5 -21 -7
-40 -4 -111 18 -144 -192 -45 -282 20 -18 20 -17 20 38 0 44 5 62 20 77 20 20
20 20 52 0 30 -18 51 -20 219 -20 263 0 284 -7 214 -69 -43 -37 -107 -57 -253
-78 -103 -15 -115 -19 -123 -40 -5 -13 -15 -23 -22 -23 -8 0 -26 -9 -41 -21
-21 -17 -26 -29 -26 -65 0 -57 19 -102 65 -153 38 -41 57 -52 54 -28 -7 58 34
113 119 154 31 15 59 30 62 34 3 3 37 9 75 12 48 4 92 16 140 37 182 83 249
96 285 60 11 -11 33 -48 48 -82 42 -90 64 -107 172 -129 51 -10 96 -21 101
-25 40 -24 -51 -75 -184 -102 l-82 -17 192 -3 c172 -2 195 -1 214 15 56 45 70
64 67 90 -3 23 -17 34 -103 76 -134 65 -235 163 -235 227 0 26 4 29 63 39 77
13 376 14 509 1 54 -5 105 -7 113 -4 8 4 47 47 86 97 145 183 179 207 299 207
94 0 130 10 136 36 3 13 21 30 40 39 32 15 51 15 247 0 329 -25 413 -36 532
-75 86 -28 175 -45 412 -80 218 -31 296 -51 400 -102 142 -69 255 -244 170
-263 -12 -2 -132 -6 -267 -8 -243 -4 -285 -10 -347 -45 -33 -18 -73 -93 -79
-149 -6 -46 8 -140 28 -192 9 -24 10 -24 36 22 38 67 136 162 206 201 57 32
71 35 221 48 88 8 168 12 178 8 16 -5 15 -9 -11 -45 -56 -77 -93 -101 -194
-125 -172 -40 -215 -75 -190 -158 22 -71 120 -160 208 -186 21 -6 21 -6 6 62
-23 110 -16 126 86 204 133 101 191 135 202 117 15 -23 0 -87 -41 -185 -22
-50 -39 -107 -39 -127 0 -45 37 -91 88 -108 40 -14 169 -17 216 -5 l30 7 -42
24 c-23 13 -59 39 -81 57 l-39 32 24 29 c30 35 31 42 43 195 6 67 13 127 16
132 13 21 50 8 86 -29 26 -29 45 -63 64 -123 61 -184 98 -216 226 -198 67 10
124 41 157 88 l21 29 -57 -9 c-56 -9 -157 -7 -168 4 -3 3 4 21 15 39 13 20 21
51 21 76 0 46 -18 69 -142 179 -37 32 -58 58 -58 72 0 27 66 72 248 172 146
80 135 80 172 8 32 -61 25 -93 -30 -131 l-24 -17 23 0 c14 0 44 11 67 25 60
35 71 74 50 175 -10 49 -12 78 -6 84 21 21 10 55 -31 89 -51 44 -81 52 -120
32 -17 -9 -99 -61 -182 -116 -172 -115 -242 -153 -264 -144 -14 5 -15 28 -9
178 8 194 3 222 -46 232 -15 4 -61 4 -101 0 -100 -8 -112 0 -172 119 -95 188
-229 282 -363 255 -30 -6 -56 -9 -58 -6 -7 6 42 104 116 232 95 166 119 219
161 368 22 78 54 170 70 203 34 72 91 128 146 143 65 18 172 13 274 -14 59
-16 122 -25 170 -25 75 0 188 16 201 28 4 4 -53 7 -126 7 -123 1 -138 3 -200
29 -37 16 -65 31 -62 33 2 3 71 -3 153 -12 120 -14 191 -16 373 -11 322 10
350 21 80 29 -124 4 -241 12 -262 18 -40 10 -87 43 -76 54 3 4 85 0 181 -9
255 -23 347 -21 553 14 97 16 180 33 183 36 3 4 -14 4 -39 0 -197 -30 -366
-32 -503 -6 -57 11 -139 25 -182 30 -44 6 -84 15 -90 21 -17 17 20 36 95 49
57 10 94 8 235 -9 144 -18 184 -19 298 -10 246 19 392 50 541 115 43 18 28 17
-99 -7 -115 -22 -101 -22 -415 0 -109 7 -160 20 -160 40 0 5 44 12 98 15 142
9 226 22 327 51 110 32 282 108 395 176 83 49 209 139 210 149 0 3 -52 -20
-116 -52 -256 -126 -429 -187 -456 -160 -16 16 14 48 130 134 51 38 143 115
205 171 106 96 121 106 247 162 149 67 149 74 -4 56 -152 -18 -149 -17 -395
-189 -41 -29 -78 -52 -83 -52 -20 0 -6 70 25 120 33 57 42 64 287 218 100 64
134 101 155 172 6 19 -4 13 -55 -33 -50 -45 -83 -64 -157 -93 -70 -27 -108
-49 -147 -85 -30 -27 -59 -49 -65 -49 -41 0 30 152 123 260 74 86 160 159 294
248 53 34 92 62 87 62 -4 0 -56 -14 -114 -31 -167 -48 -300 -141 -407 -285
-30 -41 -59 -74 -65 -74 -21 0 0 78 57 219 92 226 123 267 278 361 47 29 85
55 83 57 -8 7 -188 -51 -254 -83 -85 -41 -111 -69 -230 -251 -48 -73 -91 -133
-95 -133 -16 0 -20 54 -9 130 7 46 33 137 61 212 27 73 48 133 46 135 -3 3
-119 -150 -153 -202 -40 -61 -170 -387 -193 -485 -12 -50 -14 -52 -23 -30 -5
14 -10 63 -10 110 -1 77 4 99 50 235 28 83 55 159 59 170 10 28 -50 -54 -101
-139 -32 -52 -58 -120 -100 -256 -75 -244 -98 -312 -109 -314 -17 -2 -28 68
-24 149 6 91 35 185 109 343 26 56 44 102 41 102 -14 0 -140 -135 -155 -165
-34 -68 -98 -311 -112 -421 -8 -63 -17 -120 -21 -126 -14 -22 -26 36 -31 147
-5 105 -3 115 30 225 20 63 38 124 42 135 10 34 -43 -83 -80 -175 -25 -63 -39
-119 -50 -206 -42 -329 -78 -374 -79 -99 0 105 5 153 27 249 15 66 25 121 23
123 -1 2 -29 -60 -60 -138 -53 -130 -59 -155 -82 -313 -13 -94 -29 -182 -35
-196 l-12 -25 -14 34 c-8 18 -17 77 -20 130 -4 78 -1 122 21 241 15 80 29 154
33 165 11 40 -14 0 -47 -75 -57 -130 -70 -181 -86 -325 -16 -158 -21 -185 -32
-185 -15 0 -41 68 -52 133 -11 64 -11 67 33 198 25 74 44 135 43 136 -1 1 -36
-64 -78 -145 -49 -94 -83 -173 -93 -217 -20 -86 -23 -90 -45 -70 -35 31 -34
81 5 213 19 68 35 126 35 130 0 11 -81 -102 -121 -169 -32 -54 -41 -80 -50
-149 -5 -46 -12 -87 -15 -92 -20 -31 -56 42 -56 112 0 25 9 78 20 118 12 39
19 72 16 72 -3 0 -23 -38 -46 -85 -30 -63 -42 -104 -49 -161 -9 -82 -12 -90
-28 -80 -20 13 -31 82 -31 195 0 63 -2 112 -4 110 -3 -2 -16 -54 -30 -114 -19
-88 -23 -127 -19 -191 6 -91 -1 -104 -40 -74 -35 28 -63 76 -91 155 -26 76
-24 79 -47 -82 -12 -88 -12 -95 9 -146 12 -29 22 -56 22 -60 0 -4 -18 -7 -40
-7 -26 0 -64 13 -116 40 -42 23 -74 35 -72 28 57 -157 89 -226 120 -265 l38
-45 -23 -39 c-25 -44 -38 -49 -247 -94 -69 -15 -129 -31 -134 -35 -4 -5 11
-35 33 -69 63 -93 64 -91 -12 -91 -35 0 -84 7 -107 15 -23 8 -46 15 -50 15
-14 0 -32 -99 -26 -135 4 -20 25 -54 52 -84 36 -40 42 -51 27 -51 -41 1 -158
31 -209 54 -30 14 -54 22 -54 19 0 -4 18 -37 40 -74 29 -48 43 -86 49 -131 5
-35 8 -64 6 -66 -1 -2 -22 10 -46 26 -112 76 -213 132 -222 123 -5 -5 -9 -40
-8 -78 1 -62 -3 -74 -31 -119 l-32 -49 -7 83 c-3 45 -9 85 -12 88 -3 4 -43
-10 -89 -29 -46 -19 -98 -38 -116 -42 l-33 -7 22 44 c19 36 44 183 33 196 -1
2 -54 -11 -118 -27 -64 -17 -119 -31 -121 -31 -3 0 5 21 18 48 37 72 79 183
73 190 -10 10 -140 31 -193 32 -28 0 -64 -5 -79 -10 -15 -6 -28 -9 -30 -8 -1
2 24 43 57 91 66 96 72 123 34 133 -29 7 -85 -12 -187 -62 -37 -19 -72 -34
-77 -34 -13 0 -34 95 -26 118 3 11 26 38 50 61 l44 40 -36 7 c-71 13 -227 8
-292 -10 -35 -9 -66 -15 -69 -12 -11 12 20 89 46 114 15 13 50 35 77 48 l50
24 -38 0 c-82 0 -210 -36 -386 -107 -11 -5 -12 16 -6 122 l8 128 -65 -5 c-83
-7 -168 -47 -231 -110 l-49 -49 6 88 c4 48 9 107 12 131 l5 43 -38 -6 c-21 -4
-63 -19 -93 -33 -49 -25 -59 -35 -106 -115 -28 -49 -59 -96 -68 -105 -16 -16
-18 -16 -31 1 -19 27 -37 145 -33 222 2 41 -1 65 -8 65 -6 0 -42 -21 -80 -47
-68 -47 -70 -50 -139 -185 -38 -76 -73 -138 -76 -138 -3 0 -15 17 -27 39 -26
45 -27 92 -7 180 9 35 13 66 11 69 -8 8 -62 -36 -109 -88 -50 -55 -67 -106
-67 -197 l0 -57 -51 49 c-63 62 -77 88 -85 159 -4 31 -10 59 -14 61 -12 7 -59
-44 -101 -108 -44 -68 -64 -140 -54 -198 l7 -42 -47 34 c-38 27 -55 49 -82
106 -18 40 -37 75 -43 78 -19 12 -49 -16 -77 -72 -26 -54 -28 -66 -28 -179 l1
-121 -69 23 c-84 29 -90 34 -138 107 l-38 58 -23 -43 c-25 -47 -30 -146 -15
-262 l7 -58 -67 7 c-76 8 -121 31 -154 77 -27 37 -28 36 -63 -105 -28 -109
-28 -149 0 -221 6 -16 3 -18 -27 -12 -111 22 -134 30 -172 65 l-40 36 -33 -39
c-54 -63 -63 -132 -37 -283 l5 -33 -58 26 c-73 33 -93 50 -111 93 -13 31 -15
32 -32 17 -10 -9 -31 -40 -47 -69 -26 -48 -29 -62 -34 -185 l-5 -133 -73 67
c-40 36 -82 84 -93 105 -24 47 -35 44 -101 -30 -50 -56 -67 -103 -75 -208 -3
-40 -9 -73 -13 -73 -14 0 -49 48 -80 110 -18 36 -34 67 -36 69 -2 2 -15 -10
-29 -27 -43 -51 -110 -89 -180 -102 -64 -12 -104 -8 -52 5 15 4 50 37 87 81
51 63 58 75 43 80 -36 12 -159 74 -183 94 l-25 20 40 -1 c112 -1 190 -16 240
-47 l50 -31 5 137 5 137 18 -34 c19 -34 85 -101 100 -101 14 0 47 86 49 127 2
21 -1 64 -5 95 l-8 58 43 0 c27 0 59 -9 87 -25 23 -14 44 -25 45 -25 0 0 -1
30 -2 67 -4 63 -3 66 14 53 16 -14 17 -10 11 76 l-7 92 31 6 c38 7 64 -6 83
-42 15 -27 15 -27 16 24 0 40 -7 62 -35 108 -19 32 -47 73 -62 91 -16 18 -35
41 -44 52 -9 11 -23 50 -31 86 -18 80 -12 83 56 31 l46 -35 10 26 c17 43 11
85 -24 189 l-33 98 31 -5 c17 -3 118 -22 224 -42 l193 -37 102 58 c151 85 149
81 59 76 -76 -4 -77 -4 -137 36 -34 23 -70 51 -80 63 -20 22 -20 22 0 15 11
-4 51 -14 89 -22 68 -15 70 -15 120 11 28 15 67 40 86 56 l34 29 -159 1 c-88
0 -182 4 -210 7 l-50 7 95 24 c102 25 153 49 239 111 47 34 52 40 35 46 -74
27 -220 87 -227 93 -5 5 13 24 40 44 26 20 73 61 103 91 l54 56 -69 0 c-89 0
-188 16 -240 39 l-40 18 62 11 c63 11 131 40 151 65 10 12 -1 18 -65 37 -90
27 -169 29 -232 6 -60 -22 -61 -21 -21 17 20 17 48 49 64 69 26 35 28 41 21
100 l-8 63 -12 -53 c-14 -61 -25 -75 -77 -97 -42 -17 -42 -17 -27 36 9 29 9
45 -1 68 -12 30 -117 137 -126 129 -2 -3 5 -27 16 -53 11 -27 21 -62 22 -79 1
-43 -35 -110 -95 -174 -57 -60 -93 -82 -132 -82 -33 0 -68 18 -60 31 4 5 -1 9
-9 9 -8 0 -39 28 -68 62 -103 120 -173 190 -210 209 -46 24 -163 26 -194 5
-20 -14 -21 -12 -38 39 -12 38 -30 66 -64 99 -26 26 -48 41 -50 34 -1 -7 -6
-53 -10 -103 l-7 -90 -28 3 c-45 5 -106 -17 -123 -44 -12 -18 -15 -39 -12 -76
l5 -52 -56 63 c-71 80 -239 318 -248 350 -9 37 13 87 93 206 107 160 121 211
83 295 -50 111 -154 208 -384 358 -268 175 -353 311 -355 572 -1 247 -123 490
-289 578 -62 34 -192 72 -243 72 -27 0 -25 -3 39 -58z"/>
</g>
</svg>
