<?xml version="1.0" standalone="no"?>
<!DOCTYPE svg PUBLIC "-//W3C//DTD SVG 20010904//EN"
 "http://www.w3.org/TR/2001/REC-SVG-20010904/DTD/svg10.dtd">
<svg version="1.0" xmlns="http://www.w3.org/2000/svg"
 width="1280.000000pt" height="652.000000pt" viewBox="0 0 1280.000000 652.000000"
 preserveAspectRatio="xMidYMid meet">
<metadata>
Created by potrace 1.15, written by Peter Selinger 2001-2017
</metadata>
<g transform="translate(0.000000,652.000000) scale(0.100000,-0.100000)"
fill="#000000" stroke="none">
<path d="M7517 6509 c-128 -11 -281 -36 -467 -76 -91 -19 -183 -37 -205 -40
-67 -7 -115 -23 -230 -75 -208 -95 -543 -293 -888 -525 -92 -62 -175 -113
-183 -113 -8 0 -36 22 -62 49 -26 27 -56 50 -67 53 -17 3 -20 11 -20 53 1 28
5 64 9 80 l8 30 -21 -20 c-13 -13 -26 -45 -34 -83 -7 -34 -18 -67 -25 -74 -7
-7 -12 -19 -12 -28 0 -20 44 -90 92 -147 33 -39 35 -45 28 -85 -33 -175 -206
-415 -535 -742 -151 -150 -386 -362 -422 -378 -17 -8 -27 -6 -49 11 -50 40
-76 29 -98 -43 -5 -16 -9 -16 -22 -5 -9 7 -30 12 -46 10 l-29 -3 7 51 c8 60 4
61 -64 27 -51 -26 -131 -50 -139 -43 -2 3 25 23 61 44 35 21 69 48 75 60 22
49 -18 44 -166 -18 l-122 -51 -28 21 c-26 21 -28 21 -40 5 -7 -10 -14 -26 -14
-36 -1 -10 -2 -24 -3 -30 -2 -19 -51 -26 -136 -20 l-75 5 -62 62 c-51 52 -85
74 -195 128 -73 35 -153 70 -178 77 -93 25 -202 87 -367 207 -95 69 -108 82
-189 201 -48 70 -98 137 -111 149 -19 19 -23 32 -23 87 0 74 -6 96 -27 96 -9
0 -12 6 -9 18 17 57 17 73 2 97 -19 29 -53 36 -37 7 5 -10 6 -35 1 -62 -5 -25
-9 -48 -10 -52 0 -5 -7 -8 -15 -8 -18 0 -35 -31 -35 -64 0 -31 -4 -32 -38 -7
-132 91 -475 271 -700 365 -445 186 -1031 326 -1432 341 l-125 5 64 -15 c172
-39 358 -124 510 -233 106 -75 259 -222 343 -327 124 -156 288 -434 288 -488
0 -14 -15 -55 -34 -90 l-33 -65 46 24 c73 38 131 41 252 9 410 -106 759 -356
982 -705 33 -53 36 -66 67 -275 17 -121 35 -229 39 -239 4 -11 15 86 24 220
l18 239 32 27 c54 46 183 108 255 123 76 16 267 12 335 -6 23 -6 63 -20 89
-31 42 -18 45 -22 33 -35 -19 -19 -19 -22 5 -60 20 -33 51 -47 91 -41 17 2 25
12 30 38 9 45 39 68 56 44 7 -9 10 -21 7 -26 -10 -15 24 -93 51 -118 14 -13
25 -26 25 -30 0 -3 -16 -14 -35 -23 -19 -9 -35 -23 -35 -31 0 -8 16 -28 36
-46 30 -26 43 -31 67 -26 16 3 42 6 58 6 32 0 39 20 14 40 -20 16 -17 23 36
94 63 85 88 85 169 2 l44 -46 -31 -29 c-85 -77 -95 -183 -30 -314 20 -40 54
-92 76 -115 23 -24 41 -52 41 -61 0 -11 -21 -31 -50 -49 -66 -41 -85 -81 -76
-156 9 -68 29 -74 52 -16 9 22 19 40 23 40 3 0 6 -28 6 -61 0 -49 4 -64 18
-73 26 -16 47 16 47 74 0 46 21 92 36 77 4 -4 8 -26 8 -49 1 -23 6 -43 12 -45
5 -2 24 10 42 25 29 27 32 34 32 91 0 35 -6 74 -15 90 -8 16 -17 57 -21 93 -5
51 -3 66 9 77 19 15 13 34 -25 83 l-28 36 50 31 c91 56 120 51 202 -36 55 -60
66 -98 42 -148 -14 -31 -16 -49 -8 -113 8 -67 12 -77 29 -77 18 0 20 6 17 46
-2 41 1 50 24 68 15 12 31 21 35 21 5 0 9 -29 9 -64 0 -73 11 -88 44 -57 12
12 25 21 28 21 3 0 31 -31 62 -69 109 -133 265 -246 491 -356 194 -95 365
-154 607 -209 15 -3 30 -15 33 -26 8 -25 40 -26 80 -2 17 11 53 22 82 26 28 3
88 18 134 32 46 14 113 34 149 45 l65 19 -70 -6 c-38 -3 -81 -7 -95 -10 -24
-5 -24 -5 -6 10 33 27 9 32 -86 20 -414 -55 -763 60 -1048 346 -144 145 -276
339 -350 516 l-30 73 25 25 c47 47 30 127 -51 244 -24 35 -44 67 -44 71 0 7
172 92 285 141 205 89 399 140 531 140 59 0 104 5 127 15 90 37 275 7 487 -80
120 -48 309 -144 395 -200 l50 -32 64 -172 c36 -94 66 -170 67 -168 2 2 -3 39
-11 82 -31 180 -53 383 -46 416 5 19 22 70 40 114 148 370 410 612 761 705 61
16 126 24 228 27 l143 6 -24 26 c-13 14 -49 60 -78 101 l-54 75 -3 225 c-4
256 7 394 44 542 65 262 203 422 384 445 l55 7 -50 7 c-65 9 -286 8 -398 -2z"/>
<path d="M12550 1499 c-83 -8 -234 -34 -295 -51 -71 -18 -309 -146 -482 -258
-19 -12 -25 -11 -57 11 -31 21 -35 28 -31 54 8 41 -10 11 -20 -33 -5 -27 -2
-39 20 -67 l26 -35 -21 -46 c-38 -88 -162 -220 -342 -367 -41 -34 -49 -37 -69
-27 -17 10 -23 9 -29 -1 -5 -7 -18 -14 -30 -16 -18 -3 -20 0 -15 18 6 18 4 21
-11 16 -11 -3 -30 -8 -44 -12 -24 -6 -24 -6 3 10 27 15 36 35 17 35 -5 0 -33
-9 -61 -19 -28 -11 -57 -17 -65 -14 -8 3 -17 -2 -20 -11 -10 -25 -79 -21 -117
8 -43 32 -90 55 -162 81 -146 51 -275 177 -290 283 -7 53 -25 72 -25 27 0 -14
-4 -25 -10 -25 -5 0 -10 -7 -10 -16 0 -9 -3 -14 -7 -12 -5 2 -69 34 -143 71
-214 106 -491 186 -705 202 l-80 6 68 -25 c38 -14 94 -40 124 -58 140 -83 326
-330 273 -363 -23 -14 -8 -22 23 -13 45 14 137 -10 247 -64 68 -33 102 -59
171 -128 56 -56 89 -96 93 -115 3 -17 11 -61 18 -100 l13 -70 9 92 9 93 54 26
c45 22 67 27 127 26 89 -2 113 -10 129 -42 16 -32 47 -38 54 -11 6 25 23 28
23 4 0 -9 8 -25 17 -36 17 -18 17 -19 0 -29 -14 -8 -16 -13 -6 -24 15 -18 73
-19 66 -1 -5 15 30 67 47 67 7 0 22 -10 34 -23 l22 -24 -20 -18 c-32 -29 -27
-85 14 -138 l34 -45 -29 -21 c-17 -13 -29 -31 -29 -45 0 -31 11 -39 26 -18 13
15 14 15 11 -7 -1 -13 4 -26 11 -28 7 -3 12 5 12 21 0 13 5 28 10 31 6 3 10
-3 10 -14 0 -24 10 -27 28 -9 15 15 16 65 1 74 -7 4 -9 22 -6 44 3 22 0 43 -7
50 -8 8 -6 15 8 26 27 19 49 18 80 -7 25 -20 27 -26 22 -68 -4 -25 -2 -53 4
-61 9 -14 11 -13 14 19 2 27 26 24 26 -4 0 -21 4 -26 16 -21 11 4 34 -10 69
-42 83 -76 271 -164 402 -188 21 -4 41 -11 45 -17 4 -7 15 -7 35 0 15 6 55 16
88 23 54 11 58 14 35 22 -14 6 -54 7 -90 4 -160 -13 -301 41 -420 163 -82 83
-150 195 -131 214 18 18 13 51 -14 87 -13 18 -22 37 -20 41 9 13 207 87 265
98 133 25 200 24 285 -3 44 -15 113 -43 154 -64 68 -35 75 -41 93 -87 30 -77
36 -73 22 15 -11 69 -11 87 2 122 37 105 134 210 237 258 62 29 195 57 223 46
21 -8 17 1 -17 44 l-31 39 4 138 c4 111 9 149 27 195 24 62 87 128 122 128 11
0 17 5 14 10 -7 11 -64 11 -175 -1z"/>
</g>
</svg>
