<?xml version="1.0" standalone="no"?>
<!DOCTYPE svg PUBLIC "-//W3C//DTD SVG 20010904//EN"
 "http://www.w3.org/TR/2001/REC-SVG-20010904/DTD/svg10.dtd">
<svg version="1.0" xmlns="http://www.w3.org/2000/svg"
 width="640.000000pt" height="1280.000000pt" viewBox="0 0 640.000000 1280.000000"
 preserveAspectRatio="xMidYMid meet">
<metadata>
Created by potrace 1.15, written by Peter Selinger 2001-2017
</metadata>
<g transform="translate(0.000000,1280.000000) scale(0.100000,-0.100000)"
fill="#000000" stroke="none">
<path d="M3090 12793 c-49 -9 -166 -73 -226 -122 -193 -157 -430 -533 -599
-951 -21 -52 -44 -100 -51 -105 -8 -8 -13 -72 -15 -229 l-4 -218 -25 -20 c-14
-11 -56 -36 -95 -55 -125 -63 -235 -142 -342 -246 -103 -100 -183 -203 -183
-236 0 -10 -18 -32 -40 -50 -22 -17 -40 -38 -40 -45 0 -8 -20 -47 -45 -87 -27
-45 -49 -95 -55 -128 -6 -30 -17 -63 -26 -72 -10 -11 -20 -50 -25 -99 -5 -45
-13 -89 -18 -98 -14 -28 -20 -80 -31 -267 -10 -175 -14 -334 -45 -1465 -17
-621 -19 -1360 -5 -1625 5 -99 14 -322 20 -495 9 -294 25 -512 50 -690 9 -70
19 -106 71 -280 32 -106 152 -338 212 -410 72 -88 201 -206 312 -285 90 -66
297 -174 415 -218 l64 -24 -2 -254 c-2 -140 -1 -366 0 -504 1 -137 2 -319 3
-403 0 -138 2 -152 18 -152 16 0 17 26 17 414 0 228 3 421 6 429 9 24 41 8 48
-23 3 -16 8 -207 12 -424 7 -384 8 -396 27 -396 19 0 19 7 12 420 l-8 420 22
0 22 0 -7 -425 -7 -425 25 0 26 0 3 414 c2 228 7 417 11 421 3 4 16 4 27 0 21
-6 21 -10 21 -430 l0 -424 21 7 c21 8 21 11 20 388 -2 385 2 444 24 444 10 0
14 -86 16 -410 4 -374 6 -411 22 -427 16 -16 17 -5 17 237 0 140 3 332 7 426
5 150 8 171 22 167 15 -4 15 -42 7 -415 -7 -344 -6 -412 5 -419 38 -24 39 -16
39 219 0 297 11 602 22 602 4 0 8 -187 8 -415 0 -408 0 -415 20 -415 20 0 20
7 20 363 0 385 5 470 25 465 10 -2 14 -96 19 -413 6 -377 11 -444 32 -422 4 3
9 191 12 417 4 336 7 410 18 410 12 0 14 -73 14 -420 l0 -420 25 0 25 0 0 420
c0 311 3 420 12 420 8 0 9 -175 4 -707 l-7 -708 -24 -20 c-34 -28 -47 -67 -34
-105 6 -16 16 -30 22 -30 5 0 3 -8 -5 -17 -13 -15 -18 -155 -37 -943 -11 -509
-24 -978 -27 -1043 -4 -74 -2 -117 4 -117 13 0 18 137 42 1129 11 442 22 806
26 810 3 3 3 -73 0 -169 -4 -96 -13 -490 -21 -875 -8 -385 -17 -746 -19 -802
-3 -57 -1 -103 4 -103 14 0 23 300 47 1560 3 190 10 356 14 370 5 14 6 -51 4
-145 -3 -93 -12 -489 -20 -880 -8 -390 -16 -754 -18 -808 -1 -53 1 -97 4 -97
11 0 19 123 20 329 1 113 5 271 8 351 4 80 5 -41 2 -268 -3 -309 -1 -412 7
-412 9 0 12 108 13 418 1 229 4 442 9 472 4 30 8 -164 9 -437 0 -301 5 -493
10 -493 6 0 8 265 6 698 -4 739 4 700 24 -128 12 -466 16 -550 29 -550 4 0 4
109 0 242 -4 134 -17 548 -28 920 -11 372 -19 708 -19 745 3 133 18 -242 38
-977 22 -794 28 -930 41 -930 4 0 6 28 4 62 -2 35 -9 239 -14 453 -6 215 -15
525 -20 690 -19 612 -23 780 -17 775 6 -6 13 -202 47 -1333 10 -352 21 -641
24 -645 3 -3 8 -3 10 -1 1 2 -10 420 -25 929 -15 509 -28 984 -28 1056 -1 104
-4 134 -16 144 -13 11 -13 15 0 33 30 42 17 100 -25 122 l-28 15 5 287 c3 159
10 290 14 291 5 2 9 192 9 423 0 230 4 419 9 419 14 0 21 -84 21 -250 0 -316
12 -580 27 -580 11 0 13 75 13 415 l0 415 29 0 c24 0 29 -5 35 -31 3 -17 6
-204 6 -415 0 -335 2 -383 15 -378 13 5 15 64 17 418 3 357 5 411 18 411 13 0
15 -54 18 -412 2 -395 3 -413 21 -413 18 0 19 19 26 415 6 349 10 415 22 415
12 0 13 -60 11 -410 -3 -415 -3 -420 30 -420 4 0 5 134 4 297 -2 164 -1 353 3
420 6 112 9 123 26 123 18 0 19 -14 19 -414 0 -409 0 -414 20 -409 20 5 20 14
20 419 0 361 2 414 15 414 13 0 15 -53 15 -415 l0 -415 26 0 27 0 -4 417 c-4
392 -3 418 14 421 16 3 17 -20 17 -376 0 -389 4 -476 24 -469 16 5 24 152 26
520 1 180 6 330 11 333 5 3 9 -78 10 -193 2 -278 13 -640 20 -647 3 -4 14 -4
23 0 14 6 16 46 16 424 0 238 4 421 9 424 13 8 21 -165 24 -524 3 -301 4 -305
25 -308 19 -3 20 0 15 55 -3 32 -8 84 -12 116 -5 32 -4 60 1 63 10 7 10 374
-1 478 -6 50 -5 86 1 96 6 10 7 102 1 258 l-8 242 70 29 c39 16 119 48 179 72
214 85 363 186 557 379 263 263 342 447 409 953 28 212 38 313 60 622 37 500
55 1696 33 2150 -7 138 -18 450 -23 695 -6 245 -15 470 -20 500 -4 30 -20 129
-34 220 -14 91 -31 188 -37 215 -18 81 -213 445 -276 514 -29 33 -53 64 -53
71 0 61 -160 226 -328 339 -74 50 -179 101 -207 101 -19 0 -20 8 -22 143 -4
230 -13 327 -29 327 -8 0 -14 8 -14 18 0 43 -179 415 -282 586 -120 197 -253
365 -365 459 -32 26 -94 66 -138 88 -68 34 -93 41 -155 44 -41 2 -86 1 -100
-2z m186 -51 c161 -56 338 -233 513 -514 75 -119 191 -340 254 -483 70 -158
84 -141 -111 -133 -365 14 -1044 19 -1347 10 -176 -5 -321 -8 -322 -7 -2 1 19
53 46 116 234 553 511 930 743 1010 67 23 158 23 224 1z m-159 -10784 c-3 -7
-5 -2 -5 12 0 14 2 19 5 13 2 -7 2 -19 0 -25z"/>
</g>
</svg>
