<?xml version="1.0" standalone="no"?>
<!DOCTYPE svg PUBLIC "-//W3C//DTD SVG 20010904//EN"
 "http://www.w3.org/TR/2001/REC-SVG-20010904/DTD/svg10.dtd">
<svg version="1.0" xmlns="http://www.w3.org/2000/svg"
 width="1280.000000pt" height="882.000000pt" viewBox="0 0 1280.000000 882.000000"
 preserveAspectRatio="xMidYMid meet">
<metadata>
Created by potrace 1.15, written by Peter Selinger 2001-2017
</metadata>
<g transform="translate(0.000000,882.000000) scale(0.100000,-0.100000)"
fill="#000000" stroke="none">
<path d="M5612 8809 c-1584 -51 -3049 -273 -4062 -617 l-85 -29 -110 19 c-146
24 -379 35 -428 19 -64 -21 -101 -105 -66 -147 8 -10 32 -25 54 -35 22 -10 32
-19 23 -19 -26 0 -76 -47 -88 -84 -7 -22 -22 -38 -47 -50 -21 -10 -87 -51
-148 -91 -251 -166 -395 -327 -462 -517 -26 -72 -26 -75 -25 -360 0 -157 6
-351 12 -430 127 -1682 929 -3217 2240 -4289 283 -232 606 -448 960 -644 58
-32 108 -63 111 -68 3 -5 9 -8 13 -8 19 3 27 0 22 -7 -3 -5 84 -55 192 -112
108 -57 209 -112 225 -122 15 -11 27 -16 27 -11 0 4 12 -10 26 -32 64 -96 161
-174 311 -249 50 -26 93 -50 95 -55 5 -14 110 -77 205 -125 559 -279 1627
-409 2598 -315 547 52 1018 162 1322 309 208 100 291 171 421 359 118 169 171
221 347 336 339 221 495 328 590 406 11 9 58 47 105 85 138 110 304 259 455
409 169 167 357 373 350 384 -2 5 8 19 23 32 l27 24 -25 -30 -25 -30 27 24
c15 13 26 27 25 31 -1 4 53 72 120 151 839 987 1326 2120 1459 3389 21 209 33
598 18 618 -8 11 -9 26 -3 46 15 50 10 198 -7 257 -153 519 -1058 969 -2554
1269 -1219 244 -2776 357 -4268 309z m-4351 -635 c164 -21 173 -25 107 -48
-29 -11 -104 -41 -167 -68 -131 -55 -176 -60 -260 -25 -72 29 -86 51 -63 97 9
19 28 40 42 47 35 18 193 16 341 -3z m-305 -225 c-43 -22 -81 -38 -84 -35 -3
4 5 17 18 31 26 27 67 43 115 44 25 0 17 -7 -49 -40z"/>
</g>
</svg>
