<?xml version="1.0" ?><svg id="Layer_1_1_" style="enable-background:new 0 0 64 64;" version="1.1" viewBox="0 0 64 64" xml:space="preserve" xmlns="http://www.w3.org/2000/svg" xmlns:xlink="http://www.w3.org/1999/xlink"><g/><path d="M45,18h-6v-4c0-0.552-0.447-1-1-1h-2.556C35.788,12.409,36,11.732,36,11c0-1.858-1.279-3.411-3-3.858V2h-2v5.142  c-1.721,0.447-3,2-3,3.858c0,0.732,0.212,1.409,0.556,2H26c-0.553,0-1,0.448-1,1v4h-6C9.626,18,2,25.626,2,35s7.626,17,17,17h6v4  c0,0.552,0.447,1,1,1h3v2c0,1.654,1.346,3,3,3s3-1.346,3-3v-2h3c0.553,0,1-0.448,1-1v-4h6c9.374,0,17-7.626,17-17S54.374,18,45,18z   M42.648,50H38h-0.014c6.204-8.98,6.204-21.02,0-30H38h4.649c4.643,3.65,7.299,9.109,7.291,15.028  C49.931,40.928,47.274,46.364,42.648,50z M21.352,50c-4.626-3.636-7.283-9.072-7.291-14.972C14.052,29.109,16.708,23.65,21.351,20  H26h0.014c-6.204,8.98-6.204,21.02,0,30H26H21.352z M28.502,50c-6.852-8.77-6.852-21.23,0-30H31v30H28.502z M33,20h2.498  c6.852,8.77,6.852,21.23,0,30H33V20z M30,11c0-1.103,0.897-2,2-2s2,0.897,2,2s-0.897,2-2,2S30,12.103,30,11z M27,15h10v3H27V15z   M4,35c0-8.031,6.349-14.59,14.29-14.964c-3.993,3.945-6.238,9.275-6.23,14.995c0.008,5.699,2.253,11.004,6.231,14.933  C10.35,49.591,4,43.032,4,35z M33,59c0,0.551-0.448,1-1,1s-1-0.449-1-1v-2h2V59z M37,55h-3h-4h-3v-3h10V55z M45.708,49.964  c3.978-3.93,6.223-9.234,6.231-14.933c0.008-5.72-2.237-11.05-6.23-14.995C53.65,20.41,60,26.968,60,35  C60,43.032,53.65,49.591,45.708,49.964z"/></svg>